<mxfile modified="2022-09-14T10:19:41.778Z" host="app.diagrams.net" agent="5.0 (Windows NT 10.0; Win64; x64) AppleWebKit/537.36 (KHTML, like Gecko) Chrome/105.0.0.0 Safari/537.36" etag="J41o9qkUaI056ZIIO2bp" version="20.3.0" type="github">
  <diagram id="f106602c-feb2-e66a-4537-3a34d633f6aa" name="Page-1">
    <mxGraphModel dx="1422" dy="794" grid="1" gridSize="10" guides="1" tooltips="1" connect="1" arrows="1" fold="1" page="1" pageScale="1" pageWidth="1169" pageHeight="827" background="none" math="0" shadow="0">
      <root>
        <mxCell id="0" />
        <mxCell id="1" parent="0" />
        <mxCell id="14" value="&lt;b&gt;Google &lt;/b&gt;Cloud Platform" style="fillColor=#F6F6F6;strokeColor=none;shadow=0;gradientColor=none;fontSize=14;align=left;spacing=10;fontColor=#717171;9E9E9E;verticalAlign=top;spacingTop=-4;fontStyle=0;spacingLeft=40;html=1;" parent="1" vertex="1">
          <mxGeometry x="130" y="130" width="990" height="391" as="geometry" />
        </mxCell>
        <mxCell id="15" value="" style="shape=mxgraph.gcp2.google_cloud_platform;fillColor=#F6F6F6;strokeColor=none;shadow=0;gradientColor=none;" parent="14" vertex="1">
          <mxGeometry width="23" height="20" relative="1" as="geometry">
            <mxPoint x="20" y="10" as="offset" />
          </mxGeometry>
        </mxCell>
        <mxCell id="4D6Yn64_4JIRmKL3iklQ-1001" value="" style="shape=image;html=1;verticalAlign=top;verticalLabelPosition=bottom;labelBackgroundColor=#ffffff;imageAspect=0;aspect=fixed;image=https://cdn1.iconfinder.com/data/icons/bootstrap-vol-3/16/filetype-csv-128.png;direction=east;" vertex="1" parent="14">
          <mxGeometry x="79.99785714285714" y="167.58343065693427" width="31.298143851508115" height="31.298143851508115" as="geometry" />
        </mxCell>
        <mxCell id="4D6Yn64_4JIRmKL3iklQ-1030" style="edgeStyle=orthogonalEdgeStyle;rounded=0;orthogonalLoop=1;jettySize=auto;html=1;entryX=0;entryY=0.5;entryDx=0;entryDy=0;strokeColor=#4284F3;strokeWidth=2;endArrow=classic;endFill=1;startSize=4;endSize=4;" edge="1" parent="14" source="4D6Yn64_4JIRmKL3iklQ-1002" target="4D6Yn64_4JIRmKL3iklQ-1005">
          <mxGeometry relative="1" as="geometry">
            <Array as="points">
              <mxPoint x="150" y="159.82481751824815" />
              <mxPoint x="150" y="159.82481751824815" />
            </Array>
          </mxGeometry>
        </mxCell>
        <mxCell id="4D6Yn64_4JIRmKL3iklQ-1002" value="" style="shape=image;html=1;verticalAlign=top;verticalLabelPosition=bottom;labelBackgroundColor=#ffffff;imageAspect=0;aspect=fixed;image=https://cdn3.iconfinder.com/data/icons/dompicon-glyph-file-format-2/256/file-csv-format-type-128.png" vertex="1" parent="14">
          <mxGeometry x="94.28571428571429" y="130.00386861313865" width="35.83410672853827" height="35.83410672853827" as="geometry" />
        </mxCell>
        <mxCell id="4D6Yn64_4JIRmKL3iklQ-1003" value="" style="shape=image;html=1;verticalAlign=top;verticalLabelPosition=bottom;labelBackgroundColor=#ffffff;imageAspect=0;aspect=fixed;image=https://cdn2.iconfinder.com/data/icons/simple-files/128/CSV.png" vertex="1" parent="14">
          <mxGeometry x="54.784285714285716" y="130.00386861313865" width="35.83410672853827" height="35.83410672853827" as="geometry" />
        </mxCell>
        <mxCell id="4D6Yn64_4JIRmKL3iklQ-1028" style="edgeStyle=orthogonalEdgeStyle;rounded=0;orthogonalLoop=1;jettySize=auto;html=1;strokeColor=#4284F3;strokeWidth=2;endArrow=classic;endFill=1;startSize=4;endSize=4;" edge="1" parent="14" source="4D6Yn64_4JIRmKL3iklQ-1005" target="4D6Yn64_4JIRmKL3iklQ-1007">
          <mxGeometry relative="1" as="geometry" />
        </mxCell>
        <mxCell id="4D6Yn64_4JIRmKL3iklQ-1005" value="" style="strokeColor=#dddddd;shadow=1;strokeWidth=1;rounded=1;absoluteArcSize=1;arcSize=2;" vertex="1" parent="14">
          <mxGeometry x="210" y="130" width="140" height="59.999999999999986" as="geometry" />
        </mxCell>
        <mxCell id="4D6Yn64_4JIRmKL3iklQ-1006" value="Cloud&#xa;Storage" style="editableCssRules=.*;fontColor=#999999;shape=image;verticalLabelPosition=middle;labelBackgroundColor=#ffffff;verticalAlign=middle;labelPosition=right;align=left;spacingLeft=20;part=1;points=[];imageAspect=0;image=data:image/svg+xml,PHN2ZyB4bWxucz0iaHR0cDovL3d3dy53My5vcmcvMjAwMC9zdmciIHhtbG5zOnY9Imh0dHBzOi8vdmVjdGEuaW8vbmFubyIgd2lkdGg9IjIwIiBoZWlnaHQ9IjE2IiB2aWV3Qm94PSIwIDAgMjAgMTYiPiYjeGE7CTxzdHlsZSB0eXBlPSJ0ZXh0L2NzcyI+JiN4YTsJLnN0MHtmaWxsOiM0Mjg1ZjQ7fSYjeGE7CS5zdDF7ZmlsbDojNjY5ZGY2O30mI3hhOwkuc3Qye2ZpbGw6I2FlY2JmYTt9JiN4YTsJLnN0M3tmaWxsOiNmZmY7fSYjeGE7CTwvc3R5bGU+JiN4YTsJPHBhdGggY2xhc3M9InN0MiIgZD0iTTAgMGgyMHY3SDB6Ii8+JiN4YTsJPHBhdGggY2xhc3M9InN0MSIgZD0iTTE4IDBoMnY3aC0yeiIvPiYjeGE7CTxwYXRoIGNsYXNzPSJzdDAiIGQ9Ik0xOCA3bDItN2gtMnoiLz4mI3hhOwk8cGF0aCBjbGFzcz0ic3QxIiBkPSJNMCAwaDJ2N0gweiIvPiYjeGE7CTxnIGNsYXNzPSJzdDMiPiYjeGE7CQk8cGF0aCBkPSJNNCAzaDZ2MUg0eiIvPiYjeGE7CQk8cmVjdCB4PSIxMyIgeT0iMiIgd2lkdGg9IjMiIGhlaWdodD0iMyIgcng9IjEuNSIvPiYjeGE7CTwvZz4mI3hhOwk8cGF0aCBjbGFzcz0ic3QyIiBkPSJNMCA5aDIwdjdIMHoiLz4mI3hhOwk8cGF0aCBjbGFzcz0ic3QxIiBkPSJNMTggOWgydjdoLTJ6Ii8+JiN4YTsJPHBhdGggY2xhc3M9InN0MCIgZD0iTTE4IDE2bDItN2gtMnoiLz4mI3hhOwk8cGF0aCBjbGFzcz0ic3QxIiBkPSJNMCA5aDJ2N0gweiIvPiYjeGE7CTxnIGNsYXNzPSJzdDMiPiYjeGE7CQk8cGF0aCBkPSJNNCAxMmg2djFINHoiLz4mI3hhOwkJPHJlY3QgeD0iMTMiIHk9IjExIiB3aWR0aD0iMyIgaGVpZ2h0PSIzIiByeD0iMS41Ii8+JiN4YTsJPC9nPiYjeGE7PC9zdmc+;" vertex="1" parent="4D6Yn64_4JIRmKL3iklQ-1005">
          <mxGeometry width="30" height="24" relative="1" as="geometry">
            <mxPoint x="15" y="18" as="offset" />
          </mxGeometry>
        </mxCell>
        <mxCell id="4D6Yn64_4JIRmKL3iklQ-1027" style="edgeStyle=orthogonalEdgeStyle;rounded=0;orthogonalLoop=1;jettySize=auto;html=1;strokeColor=#4284F3;strokeWidth=2;endArrow=classic;endFill=1;startSize=4;endSize=4;" edge="1" parent="14" source="4D6Yn64_4JIRmKL3iklQ-1007" target="4D6Yn64_4JIRmKL3iklQ-1009">
          <mxGeometry relative="1" as="geometry" />
        </mxCell>
        <mxCell id="4D6Yn64_4JIRmKL3iklQ-1007" value="" style="strokeColor=#dddddd;shadow=1;strokeWidth=1;rounded=1;absoluteArcSize=1;arcSize=2;" vertex="1" parent="14">
          <mxGeometry x="410.0028571428572" y="130" width="141.42857142857144" height="59.999999999999986" as="geometry" />
        </mxCell>
        <mxCell id="4D6Yn64_4JIRmKL3iklQ-1008" value="Dataproc" style="editableCssRules=.*;fontColor=#999999;shape=image;verticalLabelPosition=middle;labelBackgroundColor=#ffffff;verticalAlign=middle;labelPosition=right;align=left;spacingLeft=20;part=1;points=[];imageAspect=0;image=data:image/svg+xml,PHN2ZyB4bWxucz0iaHR0cDovL3d3dy53My5vcmcvMjAwMC9zdmciIHhtbG5zOnY9Imh0dHBzOi8vdmVjdGEuaW8vbmFubyIgd2lkdGg9IjE5LjM2MzAxMjMxMzg0Mjc3MyIgaGVpZ2h0PSIxNy45NzU1MjY4MDk2OTIzODMiIHZpZXdCb3g9IjAuMDAwNTYwMDI1NjI2MzI3ODQyNSAwLjYxOTYyOTc0MDcxNTAyNjkgMTkuMzYzMDEyMzEzODQyNzczIDE3Ljk3NTUyNjgwOTY5MjM4MyI+JiN4YTsJPHN0eWxlIHR5cGU9InRleHQvY3NzIj4mI3hhOwkuc3Qwe2ZpbGwtcnVsZTpldmVub2RkO30mI3hhOwkuc3Qxe2ZpbGw6I2FlY2JmYTt9JiN4YTsJLnN0MntmaWxsOiM0Mjg1ZjQ7fSYjeGE7CS5zdDN7ZmlsbDojNjY5ZGY2O30mI3hhOwk8L3N0eWxlPiYjeGE7CTxnIGNsYXNzPSJzdDAgc3QxIj4mI3hhOwkJPHBhdGggZD0iTTQuNjkgMTYuNGwxMC4xOS01Ljg5Ljk3IDEuNjktMTAuMTggNS44OHoiLz4mI3hhOwkJPHBhdGggZD0iTTcuNSA0LjR2MTAuMzVsLTEuODcgMS40MVY0LjR6Ii8+JiN4YTsJCTxwYXRoIGQ9Ik0xNy40OSAxMS4ybC0uOTcgMS42OC04Ljk2LTUuMTktLjI2LTIuMzZ6Ii8+JiN4YTsJPC9nPiYjeGE7CTxwYXRoIGNsYXNzPSJzdDAgc3QyIiBkPSJNMTIuMzkgOC4yNkw3LjMgNS4zM2wuMjYgMi4zNiAxLjUxLjg2YTQgNCAwIDAgMCAzLjMyLS4yOXoiLz4mI3hhOwk8cGF0aCBjbGFzcz0ic3QwIHN0MSIgZD0iTTYuMTMgNi4yOWgwYTMuNzggMy43OCAwIDAgMSA1LjE2NS01LjE2M0EzLjc4IDMuNzggMCAwIDEgOS40IDguMThhMy44IDMuOCAwIDAgMS0zLjI3LTEuODl6TTExIDMuNDlhMS44NCAxLjg0IDAgMCAwLTEuNTktLjkyQTEuODMgMS44MyAwIDAgMCA3LjU3IDQuNGExLjg0IDEuODQgMCAwIDAgMi43OTQgMS43MDZBMS44NCAxLjg0IDAgMCAwIDExLjI0IDQuNGExLjggMS44IDAgMCAwLS4yNC0uOTF6Ii8+JiN4YTsJPHBhdGggY2xhc3M9InN0MCBzdDIiIGQ9Ik01LjYzIDEwLjk0djUuMjJsMS44Ny0xLjQxdi0xLjYzYTMuMjkgMy4yOSAwIDAgMC0xLjg3LTIuMTh6bTUuNyAzLjg3bDQuNTItMi42MS0yLjIxLTEtMS4yNS44YTQuMjMgNC4yMyAwIDAgMC0xLjA2IDIuODZ6Ii8+JiN4YTsJPHBhdGggY2xhc3M9InN0MCBzdDEiIGQ9Ik0uNTEgMTYuN2gwYTMuNzcgMy43NyAwIDAgMSAxLjM4LTUuMTYgMy43MiAzLjcyIDAgMCAxIDIuODYtLjM4QTMuNzggMy43OCAwIDEgMSAuNTEgMTYuN3ptNC44NS0yLjgxQTEuNzkgMS43OSAwIDAgMCA0LjI1IDEzYTEuODMgMS44MyAwIDAgMC0yLjA2IDIuNjloMGMuMzI5LjU2Ni45MzQuOTE0IDEuNTg5LjkxM2ExLjgzIDEuODMgMCAwIDAgMS41ODUtLjkyYy4zMjYtLjU2OC4zMjQtMS4yNjctLjAwNC0xLjgzM3ptNi45NyAyLjQ3aDBhMy43OSAzLjc5IDAgMCAxIDAtMy43NyAzLjc5IDMuNzkgMCAwIDEgNS4xNi0xLjM5IDMuNzggMy43OCAwIDAgMS0xLjg5IDcuMDQ0IDMuNzggMy43OCAwIDAgMS0zLjI3LTEuODg0em00Ljg2LTIuODFhMiAyIDAgMCAwLS42Ny0uNjcgMS44NSAxLjg1IDAgMCAwLTIuNTEuNjggMS44NiAxLjg2IDAgMCAwIDAgMS44MyAxLjgzIDEuODMgMCAwIDAgMi4wNy44NSAxLjgyIDEuODIgMCAwIDAgMS4xMS0uODUgMS44OCAxLjg4IDAgMCAwIDAtMS44NHoiLz4mI3hhOwk8cGF0aCBjbGFzcz0ic3QwIHN0MyIgZD0iTTcuNDkgMTQuMTVsLTIuOCAyLjI1IDIuODYtMS42NWE0LjA3IDQuMDcgMCAwIDAtLjA2LS42ek04LjE1IDhsLS41OS0zLjZ2My4yOWEzLjQ3IDMuNDcgMCAwIDAgLjU5LjI3em01LjE1IDMuNDdsMy4yMiAxLjQxLTIuODYtMS42NGExLjY5IDEuNjkgMCAwIDAtLjM2LjIzeiIvPiYjeGE7PC9zdmc+;" vertex="1" parent="4D6Yn64_4JIRmKL3iklQ-1007">
          <mxGeometry width="30" height="28" relative="1" as="geometry">
            <mxPoint x="15" y="16" as="offset" />
          </mxGeometry>
        </mxCell>
        <mxCell id="4D6Yn64_4JIRmKL3iklQ-1023" value="" style="edgeStyle=orthogonalEdgeStyle;rounded=0;orthogonalLoop=1;jettySize=auto;html=1;strokeColor=#4284F3;strokeWidth=2;startSize=4;endSize=4;" edge="1" parent="14" source="4D6Yn64_4JIRmKL3iklQ-1009" target="4D6Yn64_4JIRmKL3iklQ-1013">
          <mxGeometry relative="1" as="geometry">
            <Array as="points">
              <mxPoint x="710" y="59.934306569343065" />
            </Array>
          </mxGeometry>
        </mxCell>
        <mxCell id="4D6Yn64_4JIRmKL3iklQ-1025" style="edgeStyle=orthogonalEdgeStyle;rounded=0;orthogonalLoop=1;jettySize=auto;html=1;strokeColor=#4284F3;strokeWidth=2;startSize=4;endSize=4;" edge="1" parent="14" source="4D6Yn64_4JIRmKL3iklQ-1009" target="4D6Yn64_4JIRmKL3iklQ-1011">
          <mxGeometry relative="1" as="geometry">
            <Array as="points">
              <mxPoint x="710" y="269.2287104622871" />
            </Array>
          </mxGeometry>
        </mxCell>
        <mxCell id="4D6Yn64_4JIRmKL3iklQ-1009" value="" style="strokeColor=#dddddd;shadow=1;strokeWidth=1;rounded=1;absoluteArcSize=1;arcSize=2;" vertex="1" parent="14">
          <mxGeometry x="610" y="130" width="150" height="59.999999999999986" as="geometry" />
        </mxCell>
        <mxCell id="4D6Yn64_4JIRmKL3iklQ-1010" value="BigQuery" style="editableCssRules=.*;fontColor=#999999;shape=image;verticalLabelPosition=middle;labelBackgroundColor=#ffffff;verticalAlign=middle;labelPosition=right;align=left;spacingLeft=20;part=1;points=[];imageAspect=0;image=data:image/svg+xml,PHN2ZyB4bWxucz0iaHR0cDovL3d3dy53My5vcmcvMjAwMC9zdmciIHhtbG5zOnY9Imh0dHBzOi8vdmVjdGEuaW8vbmFubyIgd2lkdGg9IjIwLjAwMTA0NTIyNzA1MDc4IiBoZWlnaHQ9IjIwLjAwMTA0NTIyNzA1MDc4IiBmaWxsLXJ1bGU9ImV2ZW5vZGQiIHZpZXdCb3g9IjAgMCAyMC4wMDEwNDUyMjcwNTA3OCAyMC4wMDEwNDUyMjcwNTA3OCI+JiN4YTsJPHN0eWxlIHR5cGU9InRleHQvY3NzIj4mI3hhOwkuc3Qwe2ZpbGw6I2FlY2JmYTt9JiN4YTsJLnN0MXtmaWxsOiM2NjlkZjY7fSYjeGE7CS5zdDJ7ZmlsbDojNDI4NWY0O30mI3hhOwk8L3N0eWxlPiYjeGE7CTxwYXRoIGNsYXNzPSJzdDAiIGQ9Ik00LjczIDguODN2Mi42M2E0LjkxIDQuOTEgMCAwIDAgMS43MSAxLjc0VjguODN6Ii8+JiN4YTsJPHBhdGggY2xhc3M9InN0MSIgZD0iTTcuODkgNi40MXY3LjUzQTcuNjIgNy42MiAwIDAgMCA5IDE0YTggOCAwIDAgMCAxIDBWNi40MXoiLz4mI3hhOwk8cGF0aCBjbGFzcz0ic3QwIiBkPSJNMTEuNjQgOS44NnYzLjI5YTUgNSAwIDAgMCAxLjctMS44MlY5Ljg2eiIvPiYjeGE7CTxwYXRoIGNsYXNzPSJzdDIiIGQ9Ik0xNS43NCAxNC4zMmwtMS40MiAxLjQyYS40Mi40MiAwIDAgMCAwIC42bDMuNTQgMy41NGEuNDIuNDIgMCAwIDAgLjU5IDBsMS40My0xLjQzYS40Mi40MiAwIDAgMCAwLS41OWwtMy41NC0zLjU0YS40Mi40MiAwIDAgMC0uNiAwIi8+JiN4YTsJPHBhdGggY2xhc3M9InN0MSIgZD0iTTkgMGE5IDkgMCAxIDAgMCAxOEE5IDkgMCAxIDAgOSAwbTAgMTUuNjlhNi42OCA2LjY4IDAgMCAxIC4wMDctMTMuMzYgNi42OCA2LjY4IDAgMCAxIDQuNzI3IDExLjQwM0E2LjY4IDYuNjggMCAwIDEgOSAxNS42OSIvPiYjeGE7PC9zdmc+;" vertex="1" parent="4D6Yn64_4JIRmKL3iklQ-1009">
          <mxGeometry width="30" height="30" relative="1" as="geometry">
            <mxPoint x="15" y="15" as="offset" />
          </mxGeometry>
        </mxCell>
        <mxCell id="4D6Yn64_4JIRmKL3iklQ-1011" value="Google&#xa;Data Studio" style="sketch=0;html=1;verticalAlign=top;labelPosition=center;verticalLabelPosition=bottom;align=center;spacingTop=-6;fontSize=11;fontStyle=1;fontColor=#999999;shape=image;aspect=fixed;imageAspect=0;image=data:image/svg+xml,PHN2ZyB4bWxucz0iaHR0cDovL3d3dy53My5vcmcvMjAwMC9zdmciIGlkPSJzdmcxMDczNDEiIHZlcnNpb249IjEuMSIgdmlld0JveD0iMCAwIDI3NS45ODY2OSAyNTIuNDI5NTMiIGhlaWdodD0iMjUyLjQyOTUzbW0iIHdpZHRoPSIyNzUuOTg2NjltbSI+JiN4YTsgICYjeGE7ICA8ZGVmcyBpZD0iZGVmczEwNzMzOCIvPiYjeGE7ICA8ZyB0cmFuc2Zvcm09InRyYW5zbGF0ZSgzMi40NTE1MzMsLTIwLjk0NjAxKSIgaWQ9ImxheWVyMSI+JiN4YTsgICAgPHBhdGggZD0ibSAxMDEuNjgwMDksMjczLjM3NTU0IGMgLTE2LjQ1MjEyLDAgLTMwLjkxMzQyMiwtMTQuMTc3MzIgLTMwLjkxMzQyMiwtMzQuMjM1OSAwLC0xOS4xNzQ5OSAxNS4xNTE1MjIsLTMzLjY1ODA3IDMzLjUxMzYxMiwtMzMuNjU4MDcgaCAxMDQuODc0NTEgdiA2Ny44OTM5NyB6IE0gLTEuNTM4MTA0NiwxODEuODUzMzYgYyAtMTYuNDUyMTI2NCwwIC0zMC45MTM0Mjg0LC0xNC4xNzczMiAtMzAuOTEzNDI4NCwtMzQuMjM1ODkgMCwtMTkuMTc1IDE1LjE1MTUxOSwtMzMuNjU4MDggMzMuNTEzNjE4NCwtMzMuNjU4MDggSCAxMDUuOTM2NiB2IDY3Ljg5Mzk3IHogTSAxMDEuNjgwMSw4OC44Mzk5OCBjIC0xNi40NTIxMzEsMCAtMzAuOTEzNDMzLC0xNC4xNzczMTcgLTMwLjkxMzQzMywtMzQuMjM1ODk1IDAsLTE5LjE3NDk5NCAxNS4xNTE1MTksLTMzLjY1ODA3NSAzMy41MTM2MjMsLTMzLjY1ODA3NSBIIDIwOS4xNTQ4IHYgNjcuODkzOTcgeiIgc3R5bGU9Im9wYWNpdHk6MTtmaWxsOiM3NjllZjU7ZmlsbC1vcGFjaXR5OjE7c3Ryb2tlOm5vbmU7c3Ryb2tlLXdpZHRoOjAuMjY0NTgzcHg7c3Ryb2tlLWxpbmVjYXA6YnV0dDtzdHJva2UtbGluZWpvaW46bWl0ZXI7c3Ryb2tlLW9wYWNpdHk6MSIgaWQ9InBhdGgxMDc2MTAtMyIvPiYjeGE7ICAgIDxwYXRoIGQ9Im0gMjQzLjUzNTE1LDIzOS40Mjg1NSBjIDAsMTguOTg3NzUgLTE1LjM5MjYxLDMzLjk0Njk5IC0zNC4zODAzNiwzMy45NDY5OSAtMTguOTg3NzQsMCAtMzQuMzgwMzQsLTE0Ljk1OTI0IC0zNC4zODAzNCwtMzMuOTQ2OTkgMCwtMTguOTg3NzQgMTUuMzkyNiwtMzMuOTQ2OTggMzQuMzgwMzQsLTMzLjk0Njk4IDE4Ljk4Nzc1LC0xZS01IDM0LjM4MDM2LDE0Ljk1OTI0IDM0LjM4MDM2LDMzLjk0Njk4IHogTSAxNDAuMzE2OTYsMTQ3LjkwNjM4IGMgMCwxOC45ODc3NCAtMTUuMzkyNjEsMzMuOTQ2OTkgLTM0LjM4MDM2LDMzLjk0Njk4IC0xOC45ODc3NDUsMCAtMzQuMzgwMzU1LC0xNC45NTkyNCAtMzQuMzgwMzU1LC0zMy45NDY5OCAwLC0xOC45ODc3NSAxNS4zOTI2MSwtMzMuOTQ2OTkgMzQuMzgwMzU1LC0zMy45NDY5OSAxOC45ODc3NSwwIDM0LjM4MDM2LDE0Ljk1OTI0IDM0LjM4MDM2LDMzLjk0Njk5IHogTSAyNDMuNTM1MTUsNTQuODkyOTk0IGMgMCwxOC45ODc3NDcgLTE1LjM5MjYxLDMzLjk0Njk5IC0zNC4zODAzNiwzMy45NDY5ODYgLTE4Ljk4Nzc0LC0xMGUtNyAtMzQuMzgwMzQsLTE0Ljk1OTI0MyAtMzQuMzgwMzQsLTMzLjk0Njk4NiAwLC0xOC45ODc3NDMgMTUuMzkyNiwtMzMuOTQ2OTgzIDM0LjM4MDM0LC0zMy45NDY5ODQgMTguOTg3NzUsLTVlLTYgMzQuMzgwMzYsMTQuOTU5MjM3IDM0LjM4MDM2LDMzLjk0Njk4NCB6IiBzdHlsZT0ib3BhY2l0eToxO2ZpbGw6IzQwNzVlNjtmaWxsLW9wYWNpdHk6MTtzdHJva2Utd2lkdGg6MjE7c3Ryb2tlLWxpbmVqb2luOnJvdW5kIiBpZD0icGF0aDEwNzYzNC00Ii8+JiN4YTsgIDwvZz4mI3hhOzwvc3ZnPg==;" vertex="1" parent="14">
          <mxGeometry x="872.1428571428571" y="249.99999999999997" width="38.10208816705336" height="34.47331786542924" as="geometry" />
        </mxCell>
        <mxCell id="4D6Yn64_4JIRmKL3iklQ-1013" value="" style="shape=image;verticalLabelPosition=bottom;labelBackgroundColor=default;verticalAlign=top;aspect=fixed;imageAspect=0;image=data:image/png,iVBORw0KGgoAAAANSUhEUgAAAKYAAAC+CAYAAAC/DXSBAAAAAXNSR0IArs4c6QAAAARnQU1BAACxjwv8YQUAAAAJcEhZcwAADsMAAA7DAcdvqGQAADpGSURBVHhe7b0JkGxJVf+fVd1vAYYZZhj2YUAGZAQUcMUNY1AZFVFRxzUM9aeBBq4hoaJ/DRS3CFxGDBXENQIXRAIXNkPF0BBcYFiEAGSAgWAWlpl5s897r7ur7v98vidP3ry3b3VXv/fqTVdPfatPZebJkyfzZp57cqlb1aPGkFZYYZ9hnMMVVthXWBnmCvsSK8NcYV9itcY8JezcZbNyRzmcF0N6ZuvYq/b9jZVhLgB1l45GB8tgzhZWhjkH6KBmOrV3iNXPCWPcmbZO3pam060sgQHmrlSBHK27d1ytnDr2WpULvljUZ2hqYY+LZXT4yP3TeO18uwHOMUaWN6i45Y8l72WWCSvDnAONvbamEzOyTRvojXTilremY9e8Lo1v+0hqJneYxNSG3k0AYB7RrS3X9Qxh1hBgfOSNah2jCe82chj5UbPMi9J5F1+ezn/0M9JkdL5skHJje6VRtGtNZZcJK8OcA3TQJrawdTJt3vz6dN3br0znnLg6rU2bNLFXM27SVC7Mu3JkQXRrx9lVqLu9cQu0mJlgnvp5N7UdOTCy+kAjY7P6p4fT5ugh6ZwnPic97EnPSxvNBWm0ZqY4WrPy1jYz4JVhHlDg6SZ4yzuuSde+5QXpPre+LU3X7kibZgAjM6pxMSzvyspGMz9jVk8348GsdmKuYIZr9wMRGSlmhx+/e+2C9OCn/n/pwkddkZpDh9N4dIhWu+cULReWr8X3AOS9bAq/8fo3pY3jV5lR3pXWmqk8EtY2NYHp2MzEjAZiAp0SQrauDGoIg1/Rlo3CpEdDPBE1mkueMk2bQWPRa1bjuZMb090ffkOanLjJGmwmbfxRg6c0mSXEcrb6rMMsbzJJJ256Xzo8ui1t2hyLt1ybHLXp/JAMYDSF1hWOLQwaTYyfySzaDAZa93imWj5ozWh9gNbM4MZ2U+AtMWrKj2xjNprQxpvtxtgyJ71udjnkg5cHK8OcCzbwY9uJn7w7rW0dMUM8ZJz1tGWGYas4e+HHjNiYmLciHUSa8pDzcohcIdJdct8YZDv/xomlg4wfY7c5XQZoxs5aspHBbtk07luuEYvdJcXKMPcATaGaPm3wJwz6xAzAds1aVLLmixcyxjMyW9Ey05egljdIVrpH9mdlzOxEOV0R9QHaZCrMUzoX9vCKdbmwMswzhNaIMsHzrD0hyttb5uyMPYguFVaGORfMDdm0zbFO3waKIVWQWe7BYkK0K57r20atkMczdQsvPVaGeSZgRhEGKmPZs41k46oKzlLRqafCLPllxcow94rKMArlrL2gX75Q5tkbYh2Ify/ByjDnhnXVlCMadthrFnLs4xucbTQPOOoJdMoyJFCb73YaRlnLVJTPNIFMHXW8ltSYuaoV9gB5tCm7cw175s4HlR2gIcBu8/duXDLrvRfbN1gZ5l5hnm4vj7LtZoB9nI4xHiSsDHMPkMEYcUTOJzCz4GLbjZFd9XTqu2uddRbaIyr9fbI3000d3EPz30D7DSvDPIPADN0U/R0Ezzl4W0XciBR6vBjWbsjyVRUHEivDPEOQnbiVKV0QPPG73s0NsSe/GzDs5XWEc2NlmPMifx49tt0vHyM2PFJEKJsLw3PUB+LtdM1n2bOMsJUppHostHpGenwpyOzS1KBZn0LyDJzRyHSPeZDDYCYvAX1Wv6SgF1bYAxh07EFhbYwV1QibnWmTOyAMvlOURK006IBhZZh7BBuLOuygMhKMyg23plPAtg1M3BinrXlfY2WYc8OG36ZWzi9ruC0ybzJ1M13vNGXPgHToTdQadYvgRV1eH0bLEHqd/TLLjJVh7hXZiOIVcKMI2hukSTqzBnTNIH9ZlIIHGCvD3AOKMWAj/lZwemeGLAzwgvaHzqw3ojV1sGPmcmNlmHNiZNthHsaNh3s3x7bjxRh4ihxPptBYxPM0WxMH6+3Oukv+kHvE0W/DYmWGpmxaEuDmKC/krI2811jWQ/aVYc4N1nFmOzyRLsJgLMyGw+ctka5tww0VRsWcE4Olsj7XeXCxMsx5gePJloJNOGUjzOk2boaDB+WMsc/PVPNbWF559aAyA/wDipVhzg2bKG3Ola1B07WwleJFyfP87EV71J+eW7JCu5jc7hJgd4llwcow54CMwt7CC5YvmCnElXYNr+MZK6hMpqkVDkIqaAXHUhpmw0+fiBhlcXzA7WVbFL30vCSDjlxxcy3VxoNsIenYTmDKg8LNmmk3XrOVJia/NXHy8rXXNLIyExmf58cLY2RTEtSBCubCHWoNv6WujLyvRZUnRLh8WFKP2Q5o+f62mY9bRB40fa11y8jy+K62zMtlJZ/5nmdyhVqZIotuM6a18ZaMcGO6aQZnhmkboC3bQU+svq2JkYlBE+NtyGCtmPGxM1PkBkpkl52yxDFkLifTMFy38o3Ykzusf/TuepYRS/nbRTSZrsdoRqNNC8c2KOvG3zQ7uzlNN280Ozpuktmo+FEBRq660jFGPDdsiJvj6YNve0ma3PR+q8kM1oqvTw6l6ZivW3CMhJzrpDae15xsbKTxlrUpW4nt62UsYIy3JBWMgCluVfUzDcbPEh1oGM9/crr4mS9Lh8+5NNu+tYRfCdnlRtiPWFLD5Bcp1i22ZSPM9HrYhurOtHX8femuY+9I4xMfMAO9zSyDgbFJAc+oAW8HiKdxBsY3wzNKz9jA4oQPNR9Ph6aH0tZoXT/Twu8X8YMDrXwOjaZb5l3vOp5uvfGT6fZbjyXbKplB4+lRZ6HJjse0JypxlJQiXYNy/d0yneF7wFPSI5/50nTk/o+3OpgM8brU2dWzDFhSwzRPyW8AmcGxztMgb7wr3XXtK9PaxifMM91pgzFNmzaVA54W5yf9Alxx+eWKAQx1yYh1od0Io+lR/+GstZOWNm84PWx5ZgS5TJTkh16pc93erv3wNemum29OR7JR+k+4WL4Z5pD3E8RuDcrV25v+hss05z0lXXz5y9KRcx9nJa1/kFxSw1zONaZ+p4fBsY0F3md0R7rz2JttPXetTa23pYkZw5b5p9QcNY/Gz/GxDvS1ID/Mh4lhTBjsNhriGw9v25i+qRn7aLRh94QN/OSI1WGDbkaLrahNmTCGrbVROmHhAx/6sHT48P3SZMt0sAbVrxPvDvQFUYFUe9aBx1IaJs4OJ9DYG6Yz2vxk2rr9w8ZgvYcvIk/v5tGyocgc8a6ZzxBrpLuE96VMTRxU8jGkCejPKtEDw2PWb5QDuT5IWxw8rBEdfPjIkTQ+dFgrXmuhS5g+VGPYsus+ZbWBME4HWruEZySGDLGQX0ZvCfxalg51Zzdpc8PWk9O7te5j+mxzbYSB8RiuICQUh98nL1HCgOuES1liGB+bIDdCebb8cjmrISvFpg8dPeK7cmNhlC4X8DbFK5CLi0LGySC+acnUgnjoqPnLhSU1TIcP0zRtTU5aZMNSuBrjhqdrR3V+xEArJPDyGB+uLPLwzsXwDZJSGfLEEjjHtEWlQn2+jhrJWWaWw6nJsRlZTqUjMztkUHYufECxlIbJR4P6+T2LE7LRYacuY2HkNWweAjeELmnDZHmQpu9MGJv/riTlw/gg1xM6MRJP4QUtprxiOm1oEdVpHE5FuXG0xERcQl6ubpvSeh8AKgbKRLmDgiX1mD4IPu3JtHI4PxjHIKWDl+OgM/Att7xqRDlIn/KYxy4Gk8urhK1NQcjoI8ksJ9kaoVAqsoxrEdrJP24DUMeXF0tsmAwAQ8LDFHYZTOF7QjXqQEZhRJiNoMyxqJYnNiOSjMUzqVjoyWWJ61XiOYsipGgrzF2Qteh1b8NSGqYmYTySvXS2aCPONKwZ0sKasAguEupO2Y4il+MON0JfGvjyANsUUb7EQ2eOZ37YkTZiWKPp0q7eaMvSMm8rwKmC9tLyok76vFuEhgyLl3aaOj1MDJlckL5WLOH8TnWKLSfojQOP2vhApHn58LXxlh85RpL3sGV60AciQxC/zlTaWaoxdNfIMgAT5hWGd9Bx4A1TA16hTeERmYrxaG4BHvekjFPGEiXceOqXBCt4XV0eCL7e0WGR0OFpL0O6oJapXsq4F2B5DRPHkceIQ2QGl32yX1CerjkywgAzce7I1OyTfjvECinP/IdcYbYI46kBKwxL+YiIKp4Bvdro25SrhmuqtpbmtHvCHuppvqLaa+aqRHw0Wx7vOwCwqz048EHiLTNA5oWRCKSLwSKgVZ94klK+cgr14eqqnCrqpmavfMMUQsj/eqHni1HTAJwd8rsILzEOlGHOM0AaUI84xcAyjWcenJIfVMGTPZ6o96rKyTAzoaCks1zE5Qxbp5hRyWQ66FhKw2TMZAgW0RDVu+d80K5pOx+QuyeEPA1p3BngTMUWiFdp58GujELksjot50ki08mjHiLj80icPrWnLfznXj2GhjamZPTbyy6A3TWfufPSzjp23FaU6V+lcuhx05GndXbvVO/f2PQHVHjczT8qVQNzuHzgWg8ObAxsKAg0ILUheehig5DYdgFnYaxuICLjFLI3LU0NXpW3wOPOFzqJ3VF09cqRyjV4Qq1wdCWXGwfLMIdg4xYD5oM6PICDPDGHclq4AUHI9QyyRAyt/QzA5aTByoSuPlq9TjJPY8anRwh42eXHwTFMBsVe/rl1Zjm7HbCK6gFUNKfhd8nz4ikiLQUUj+kSWMhfJA1Eu4+cdfWCbn4f3FHtlD148G5AA8uCSOysc3lwYAyT8QriXYMflOGPneWvzdriLEjyUaZCmabtrcQNrZSXUTWZMwt93X2U9ma43twm2EZefY9/QLGkhtkfEU/HpkWDBk9hTuc8vIteMjYnl8/Isn0KY3DZduq00oNkmZ5vgc5UjesI67YQtuK8eesgiVewWlWfHvzo5QVUEo8aiaxrWT3oUhomAwX0XRuBtE+x2plbWoRV2Ej6EHWJAR6iOqFhzjplYdSBUcJXOtdTUZGHTJZvYzofcYsRCm2cKdoNNfM6ci2i7UPQbp0qTUKvWYJLggMzlTt8NFkLlmm6GuGu12uJQRyi2jhUjtCT29DqbeNK8+dBByEL0FzLB4Z49xYsqWGa1Qg+Yho7DaKHIKbpmS5GQDaTF45ABF+hvfmUDEVcGZaVjSejH1c6U8nJkTY/pyue+HtAkd5bsX2L5TbMPJ3qb8ZAatwHBtp32cG3ML8cKsRfATU68TJ4sQrIdxhCrdUjHU4pU/NArmVHuCZ/8Re8g4ADNpVnME4yLAZpeKDqKbsLL6djpwHIDMKYch1OYhWETCCX0Dso5YhLp5jK2wku79RNHCwszDDj3G9ivebbAHgMAJuHLm3nONX9XlNgZGvIEeeJ+upswDYO5knrV0evKeBbirHZ4Ku4kE/RrEl98zQ2HXyk6DzTksmyBMUtgax/9NgS1xg86pec+LSZJHcDfNpggVAiFZAbIFfZ5Rlo0zyedhmwOMPMveeDyy9nGBG3fqu7U2SiQ4SOoRfNbsZjs6e1NOHfM5tS/SCWBp+CbhgyDrs1ov4xZHJjfZ7uctwyXgbjob2mLpNkVB/kQNaNMsvQoo6cU+j0C3G9LSxFFlEZKfGuRA1pzOpIRLymgtlqlgoLnMrNeKyT+K43jxdY99mLXguiaqdwXn3qGGr1Sokf0trIP/OybvkYZ9wEGBjPLTrpCUbyJJuhb1ny4whOST8l40baB60OYwyDDJDq8xzGy2w3UP4quW1l6Aeuq0tISbIuWicOMBZmmOpasy5+SmpihoNpbtpr2mxY7+LdNswMTlo+tDGDTrTUmFwmzgbHk3Fakxc8mfV5HVtmgFummV+8gMw/Gh02Omppo+aw0SErYy3EfXPjmB49iWRjvs0Ie3bQyS8yHrZ5FGvleOmvSlOCuLdBxbdDQh4tmCErXQcI5mAWc0Ws6DT4AsZ4a9rauDFNN4+l6dYJy22rda/q6dqxTavbRrNuYGxGa8bVjLfSyAx0fPKmNLnjHbYuxHDxnHjJLKvB98K6UaZbaXPzeNravD01kxNpzW4WpngqHvHz1VHO0O+a7V1laRoGm3LKNqOTseG5uQa7NruQ66/5VLrl48fSYbum8bhJh9bHRnzHkyvPlXbUY8Q5OgNu3g6ueXzBk9Ojn/3ydPTcx4rDGIz4DaclxIIMky5h20N3WbhxXdq8/T2pOXmD+a/jxmMqtWpVdbf6yi4kF6ibyUZiitdbcwPHoEYYv4Bcq0UGr6K0hXcevjDZ6R3p+G2fTNONW02feV30NOv2Xt8BLYa7Cd3ZMJXyuuSMkbe/qRkhN8QN19xohnmzGaYZ0JBhZh2B0LUTOn1iN8NBMswFTeXWKfz8sxnBaPOWtHHr28wArkvrzS02EDYV8/N9bEBsgvXNCV7LiXiQpvsp3hGj2yzkP9h6Qo7QHJLVxlTMalJDnEMnAQ/G2Bvp195GR1KzfkE6fO4j0/TQ/SyP6dyNsmyazIv6jpwp3uK9vEKkaQg6uNmI69qyvOkYsY615Ud89MiaWCap5Qc8+8tGRqi4kpZnFE8V1aRnT3K+ZMwrw6egvzy+rFjcGnOsnylNWyc/auN3ncXMoKwP/ekeOoyeJex2XnSrdy2d7qgHxUZUJK8rOYjALmcbtTpayLzS+NDRdPToeWYc/JakIdT4CHvIn4U1Bc/eOnzxdkU2pJCN0NimwV+DeryckwOxoIMGG7kFwYyGKWyycUNam95uvefnlf5Ff7of8N7r1WCJ7REfqJaKEfT4g9SOYwf8VqZNqOnwkXNNDd4SUWthNcq0klcHlhRPbSDt8aBhoxqGroPQlXpZ/WXdg4g83mo6WFiQYdJRTJrrmmrH06NmpHwnhj0yvioogBe1PTRTY54WodmDPGNAKqeiweVlOmuKurU/4XDdpnV9W8fa11lfDqgWjyJ6E0esmkDOamEZtCUSfl2RDrRpXw27XCvr1BplFyHr8suPBRmmr6NSOpEm/OcImyqbMRsM63CmV3W8d350cgwm/RrU5s+meHl6fvhBu3t1n+4xymiEa66hNikj16cGdmUC3vYWMpZtPL0r4gblySGoeKaZQgcMi5vKMcDRSduV2gaGfwhqhikj8Ez1culwXur1eclBuVCyV08ho7TyY7UJQoeFqOOtRuaFASl09o6QzIx2FV1KbJcj5TKKVXTvwMIMU79ZmY6k9Sn/4WGS1ie2jrPdqb5Ca9MmHsq/8mrxMijOD8JwhshH1OIWhFnBH5qyJcsWVs9mUrcTv4TBqcEWZ6E6JfCpPL7iW+vSKcCUw3x22R46YdgYeZdoYtIHCeji1+icqX/zp90zaSZsa7WaaDF97ba9mnbzNicdMCzuirAakL2kBsPIxyjnFYg5QC3Ce/igZqPrUL+sk38cac2BOnltGW8bUcI6HcTbfPA2Uoy3TLsgljGEbZHdyyFBParrgGHht5p8XB6ceFeHGi/IMdS5khygIQzJod+9oFOdlw0z30Bqi3P0Ripe86JzLf63Y+kibeX8+zxRYqdSNUxuL+JLhMUZZuksDKCC+OHlnPzgGhPGq7WEsD8xlI2oUAsZVAxqJv/UxYhn3GZBBslUynRt+pWmLkxxh3IVXDJP90zbcaLQQ2kf+qXbb9aWD2c2kGipKudFFXDb8beTnmXCki5O3KCheHLIp2uPxxC6DOGZR2tYbW2K5+oURCLDjbDLmwXX66+i2JkFdX7orrKXGgs0zMrvqePcG+GZBu9qdXqPSjdHfDu5botn/SLySFf5fbK3rINoWxZEy9srcESJkBNCV4coZ28GfwxPUYdEWoZ/vXaIDIjVZfvo5aPWS+byJVw+LMww9YSNdYz+m0R53hGj9Gnb9qAKfQAxou3EnwbWUr593U6uz+LIBBDPUY+R3yXpj7NMybQlMKQ+qU3aZbdTtrffojVJngLot3wLyw9sqbujyy3UbprQSmbyz8WJ9/QGGV8WqK8FO480/z6G82Lqpnelq5wILB+il84aimeap8PKms0G1kaknaqHgF6MB6PzIx+V82HaRvMg2lrarDq86U7eljZfEgprKC+zyc+iBSSLjqAaYnm+smTQZpIW6tOr1XHRKUC3NH2rHi2kdBmEGVTyCWJgPO1oec4PmhMzRF1Lnelxr9pzcyKyBLUhZwdCTMzIVzyHCnLYB2yJdvP9ej0MuGgt1y2zbFiYYUaf6RBZvRg83pzKtJ2nPfHC68Ez76hXNQAO94Zepo4PwfVupxwb0O07beoPcpk4bwRRllcgX6Z4yjPS01RKe16glukozgjdvPSXZZUeQuQbZUYOlxP7bg6IHyqA1MkD/VsGqQxCBgbUJ4ayyELDILurt41HWpBcjlQoPI9U5Soo3fKU6ssY+rxOqkpEHUM6lh0LM0zWdh460aPaANCJeKOaJNvjZX541I4nHYDqsQW/E3GrLwYsG6m/8F+29iz6c90WRlt55FjsDtmb9OUQ/ZZq43U+j/96vOUbrIBqIsnmxUL/CDPng4hbQBNzM41ok2okkakH8uV9I29AZkmwQI/Zdg5d5U+Z09POq8l3sV0e5Ea4nT8LGIGToYjb2xDJOLOhKu18orJj47R6PK+QroN4bp8sqMqXjBE795wWyzUK3TpcBmNVW1zYEBItkdMR6YGlk+V6ooTLh7M0lfsAqmttRPpUOnDOfqTRfUK3Kwiizmw4u6BMiZ6CkXk53QH5/GV+kSXdUtEp/g6QuO+u/ZjIrkbkV+SodO2i7qCAMV0QUI0n4Y/pk5dPo/WgiXiZ1/G8lmZDoylq9eTymQLSXXhWhhuh3AxxntqyIXKK5yFB2uqwSjxtobytyPPJUHamLrYxkFb5AeECyUguMwS1VgQ7VPj/DUL6YGBhhun3e+5Uf6uoh235QfOgko+AAcpUmEYy0GL4IZyHWUnSyPnL/+wlXZGfr03ejQjwq50FL5r1ZE4panB+zQGWVkFPdaEWW14OM/HecbRLjMV5TI20eSmFFaKzY6DKYA0gXFifdgFDVHb3Gq7thBbqLu2IVihDbOdkNpHSXjKzYMuT0CmDVpmWPeljnxN00LDAqdwNgI0BD9XyUR42hdfSP8K3VwwuZkJDtpHd/i2ZNhstwvIArz4iRLdTTNlB+g6R1U057cKVDuKmsRCyaVD/xZcNmizCd+2+c6ec6YMteIS0riHOOpHTBo/r5MFiu/bydBNraQK/Fh4WJu4PBnOl2RBDvCD3IT1EfYWQ9za1xFdYAlZGNzBllxP0ymKgTne4f/K+UjfTkwxWoQqe5VQlZAR5QGoUD+OpTKCnN5cvFDyBgWegK90qjKwHrazF2qjEvJ6KOYCiW2Jty2j7MEJzyHq89Y5EKFtTvANiRXjpsDjDrNB2mRmLBd7FLUUeVHu8mu8eKeIt2ilbqUwYq97thcHxtKKVV+WZavSS25H1ZQroBsMr5jPJQdUmE8ZXZ4nVk50HlCs3o+JZ1wHDggwTg+CQORtKdCIjYcltXtJQD2AgvJgon/GJTHdNU01jTL15GjX5CH3K3j5yUZc+YTIdtM5BfXVd/qqn7FJ31rEzaAO6oh9yGZLoFRgGCM8d5G3kd+SjCJhdp5VX1qz85cJZ8ZhdMLh90JlDVAFLDiqIBKPck58LGErdnqzDrcJV9ilkZkDGHGRGNeWGUkZbcrZxdS5O8Kkb+aAas/jLj3vAMOvO3I12QzYeQt4ro9gVbMCQlY6g0EGIkLQScTm9hhE6htGWnC0DennSqaBQjVn8g4AFGSa3OZ+MW49NmdJtapWnxBjg8nuWTIVBbc/GAIs0TbuMe1onX8uxrmunbE3b9UIvk+rO+XwFN2jNyo9Nv39+j1q+PqsVqZVDFzEn6oyv5tbkn1p5vsrkuNdpMsbTp1v8Gh3tix/Twg3qOco16x6m7bhmK57h1+/9OIv4ym8hdFsZ/0oxfcMP2lI/ssuHe8BjbgdDUIwgG5SIzkfA3hi0lkw2E6VbyqiExY10B/CG2TDd8HMz+jIB46vt0u9iIksXkmBGTkt+JrK+ezn2hWFyUwfloS2klwaqR7Iai9ZUISQxhiG40bjuiLssoQczVBd4mTqeqYdof9Q1G+Tn6L0cCzNMNqEaULO2MvjycExp/NkUXXa3eD/zl+VAOoNp1/L6ZG9ZoIJG1A+4Y0p1atG2w9ui7yOZTEzJPm0H4G83yVoH1xGIAyuAJvL9u+LRXv89eOOYAO++80aJfiQEdTr7ralFp86Kgl9273pbfpx1jxl9un0AjGsD6AbjNDcYHF6mQpTZDnKy0clAatoZGnRehEY++G25Tl4Old9XDQt+DaX7grtDddYv6c6ZBwhn3TDbKRvE4NDBuA2MseXNRiVjo8JrFjyvIoxTBlrfFI4+R2URzQgPOmSA/XJFJnNaZB16d12nChVVO/o66tYsJxZmmP7zfux08TJM2RvGYypmUxG7XJsA6VM+OTGJPimzT0yx5rkKSRc7UQstD/J6WAaw66bMEKx9ZmjamZvI2NpKe+Lm8ANxl1S69rp5x05b6s/f4/Rhjc/dTU7XN2G5wLVvmowrHI3YQXPZVNwdAlhu1CQqAoT6DN5JT+vbFYiUhxA/QmtXLQ+Qfyl5CbF4j0n/WK/J21gYniQG2qfs6PldoHLDgB+6u/oi3acMJSlHwJuHrifiLhPkPIzSZQIh4jo8PB20nwK1dG/Bgg3TRycMcIja0YuRrIn8THglC3XuWMnEy9OzkGW31eslI+7EvRQG4Ok2bIGMStibk1KiaE9o76DIZkS0L9oXqfOJi6yGTJ7fNdy6yLJhgYaJh8SgLKqBwBgAnde78zUPAeRb4tclCplIUER84NE7myRlYmpCBzwWl2U6hkoZS0t/jhv58qAieJaricAkOqjqU57ibVcXYyIuYQ+jTBtmuWCAItvlcS3Oqvid+HJh8VO5ITrdO9MHXZ0WBmb8Qp4jkmEPUMhmqZ0hkV1kS3tMP3oz+YMjPuC0LF76Iz+IVy8dIAYvoNwqDZyXY4pslymIu8BCL6LSYh0kLNAw6SzzKRp0xUQFlZtRnmXBqomxGaJBpgIf0JqUUQNe5lOnJ5F1g4cf5N5QLTHKgZFJezrDy9WgW+Fh6GLkeoigD+SrNJ5vYojbu2Q8t0A8ezPqPGUFuYTgbXV0yi8hFmaYGBumSK8yFm6YFarOJe7G6QMTBL+Q5Qe5LqdWhim2LdsScjH1mqEEmbzHTUjG4q1znegipE0+Zfufv2qo/T2wSfHytjsntB00rWjrodtJ0z4KIO9p+OyynUdZI9pBlvL1tg0Ulw5J+nVJ95JigR6zhveQb4IwRo6P4AW1CGPVgEc/Q2FQohqVjt6UX6hTV00gQkcYWrRPL9qTQ+Xl9kVasGjw3Cjh2VtZH8PooWJJF38WdvRmiK/XvQMLM0w6MDyUd6jFjVlszTq6eL2c7xsNTzt5+b4xxs663rQ4VbCkxlpk+jN1QWZunwQzt4St/BCv3DOZ1UmbXHgslgSBKK/228s3LbkN9gogJ+rnyLMOEX/RH8uPBXtM7/Dca4KmVItbV2ZPApe3TMH0jIIyUAxsLVNTBU/x3uW3yDeGiuYbBN05T/V0sF2PZOQRg7Y1o4PWvNCvQDSryCy+1bKdTOH2Ni8vztJUXsM6z6ZX95D+EMesIYAbNB/qErU3Da/bUvG2WBLx/OmNBpci5ObBHhrw4PFeyzm/Kx8yhd3NboFI6JkpVCFk0X3AsFDDxA9p8zDFCPhozih3viIBS7depya8ayZpcwodXXJj65MbnQp0SH4GGRmqlReHj1A95W2sQLJQlLfQdNRtU/sy+cuNPV5egbY30qH3mI7r+CwSoo4K+k90/K4IsFZYZFkfEgYLXWPqIzQNXGUcA/DuUwkTqYwq87YTGOIH1WVbsN8VlEVcplKkPOyWEazdcbPoGtgp52ObIcSN4rq4dnF5UwvUjk5RNyRX5xJdMpCXZQp5TkaWE+r4cuIsT+V0JQPmnqoYYa+Ld4fr6FKtw4bexkYOw6bq1pMxXSPL8qGFG9KwobU8QvTUHnI7ah2tziG9Le2OfDFGQ3UeRCzUMPm3ferU6Hz1KglGpIrbYM/yksV4a5IhOsrgi4y/jSw/XiUOyKvaloEaeGVTlOOuH7K020hBtEHtqNIdkKS4iGvIjGAGXGAblTrUiZms/SHiERS02NaGJcJZ9ZjeiTFovU4LC6hpz6BM0M5ww+ihtMuIdubD7ba9ECzntdcibkXDMOkcdjGrRGjr5KtOBZnvRtqROQBYvGGWDuR9Ad0XDqSPqA6vKQ/bpy7agZ6BcsNQFhPz0A2lMhajnYFQjg5h1vWo0K7KDwwWZ5hMMxq8jbQ2sV2oHlujY9s1Wky3+if6gy/b0XK0ZEQ8KI52oNi19w2vfJ+IVxiP5QRcl2/M/IFi1zXODyDTrmijb96skMh1uTJ0duuF/Ae6XK82SVMPtXkKaBo2C+R3LUlGG1Et9VgneUaS5cSAXXe22koX5abNetpYu9tSnIRwPd6GZcUCPWbc9uvuZfQ959oV0LFBVbSielanZNAwKHRqCKMY0tGuJVvDcbld6tsle3dEfUaZ42h5kQ9PfTM9bLG1NLVG+0Pup92IewwLNExAx63ZDb+puHuU7QiD25GseFAHDIyIIA+aBmsPmLnbRVfozZwc9/RwPcpX2eH8HRHKZxbttdRkVU2zmdam/PgBBomv99eyYkGGaR0yPqnv0aS1+6aJWZMGNG0a2bRmBsrO1HsfylMg02ZFLscBtZdpqUVogPYC/6qHYla4P4SuUQPeA+XKwbXlEyvnm0GVNjdkT6sYIpFPHoFdUnx1gt8Hccp1gKzDiTRtNuLXQ7wFaQvW+JDF/VdGRlNmKC8Lco1LgwUZJp1lnjIdTeNDD0qTxoyTL0mNvLrcVy0sHQfYDE0Q6zKEa29ZOjsIuUJnAj742pHPgBtamz8oaTK8ZqEYWQ1V3FIxxpwtKJ1f2og5JuMjafSAS9Lo8P1NZiLTbvTFNAcjskxY2FTOh27N6HA6er9Hp/H6IyxtHWaboCHgSfJ3/XqvAUPUwLC5cTJGRacPr4I6doAuI18LBfpAR462Hwt25bwOexF6pc6vaHdkKfOed6YL0sVPfVYaH77APOe6TedT86Kme7j6fQ9zUkM9e/rwzuWrtSfS5PjV6c5PvMl25x+09N1WKfvhGsxlZmjWkfUGaaT/2pvRsitbYFBzdCaqgoKndTNYteuT4+mGa96bDts6WDcBOrXcYGolBHaTdNqVK7Ug6ndv70CUtTUCXMN0spau/9hGuvVmmzds1lizysdG62v8Ogc76vYi+IEs4MPifN2AWWZq+TZZJybt8XQrHTdPuf7AJ6XHXfb/0oVPeKb174VMVlaGdf0hXVN7cywPFmaY/LwLUzd+LY3uSuOt69OJuz+Qpic/kSZbdxvXJxugfsutYIADvg511J1bN3m3Tu9eXhvHJNYsOd7cSLccu8GyGEh+jY0Wc9zStk/BQDdVtprb7TJ+22FgtkNuNkzXWrrFjPLu2+1GtT5hLlgz40GCJUtXc53yCmoO38dft4q3KHx4PZ1z4WPSAx/19HTew59kTbyPyfJrcibETd1gvrv30X7Egg2T2ZsBtiGyRJPukjHQ315pdBjeyQIKyBtFbvuF/VnGuFvzJRoeLusFWsWSZ29r/IMAmZNvHsIwd0Ndc21e7fnhYSMqQT/X0rab+uiRmbDrity8qMkJ2snNc8R24X57T/MZ58isnXt5LQzT6kfLyjAr+HQYA7amO53B8H+w34dlRiuKERlkOaeJGSrcw1kmN4zN6S7Ghs1gg0u648tmtbuWKcAYsj9UPUa6rlnGnnVLVaVvoEpfBlnf8isbJuqLAfTSaG4ITjSQNF7DhtPYQ03f51icx0SrOsoi+sSCDsrpbah7rh485E8Xw8bgl029Xnf7wAl+LNoYa0yxBXkvjsEKckYHZhyZ3WrA7OvraXV0boAOtvN1gK6mo2vLUtxM5i25HvEMah8Ej7/hPtjPWJzH7KvVSLUbhBoamIW0AgzVCKiQvNyuPKgMfNuUNlY78nZqtJYPdp+Zr0S4stbgvS7HKU+vzNVWpd8oGCTx4TbofxjRlpVhrrDCmcHy3Uor3CuwMswV9iVWhrnCvsTKMFfYl1gZ5gr7EivDXGFfYmWYK+xLrAxzhX2JlWGusC+xMswV9iVWhrnCvsTKMFfYl5j7IY5abBkfPF3hzGOW6ZwJ+5jbMCeTSafCocr5J6DwUVmH496/pVvh7IExYFwAY1GPSx9hChGGLOM3JN+3iRh/EGM+VG4e7MkwT5w4ka655pq0sbExs8L19fV0wQUXiI4cOSI5Gkk1p9rIFU4d8R+DNzc309VXX13GbmgsGKfzzjsvXXjhhem+971v5jp/SB6bOHbsWLruuutKPWtra+nSSy/V2IMw0L1ibsOk4g984APpuc99bvrYxz6mhlK0Lg6PhnFRD3jAA9KXfumXpu/6ru9SQ8GpNnKFU0cYzK233pq++qu/On3yk5/MOY56/Bif+9znPnIqn/d5n5e+7/u+Lz3hCU8o49Y3TnT//d//ffqpn/qpYvCUhXfRRRdJZsig54I1bC5YI5r3vOc9zSWXXNJYZY01VmSGqHTw6jziZqDNi170oubmm29u7K5t7C6TrhXODuhr6FOf+lTziEc8AisUMT42u5XxCx5piDxzMM2v/MqvNGbUGrf+2BH/i7/4i+bw4cNF74Mf/ODmIx/5SJY4dZySC7MLKaHpUDxCuziFkb799tvTL/3SL6Xv//7vT9dff714K9yzYNwYJ8YIinSMK4DP0u1Xf/VX08/93M8pfjZxSoYZF0P4ile8Ir3uda9Lr3/96+XCr7zyyvT1X//1mhICdmel1772tel3f/d3tdaJDlnhngF9/5CHPCT9z//8T7rqqqtE73jHO9Jf//Vfp+/4ju9Ihw4d0phhrBjkH/zBH6Q3vOENZ3fMrLK5gNuOqZxikBln8/GPfzxLtNPG1tZW85a3vKX5nM/5HE0LTBHQ4x73uOZDH/rQajo/i4gx6U/lj370oxtbF3bGIcbuNa95TfOwhz1M4xv07d/+7c3Jkye3ye+rqXwnmE55UxbPf/iHf5juf//755yUPvrRj6Z3vetdObXCfgNjB33FV3xF+oIv+ILiIQnZebPBOVs444aJUULmKdNnfuZnps/93M8Vn4uzOyy9973v7VxwUKSZOm677bZkm6Vkd3m68cYb0y233JLuuusuHU+EXF0O2J2e7r77bsndeeedCqmvlqnLHT9+XHIhS3nka5CGkEUGoo6QDf01MXi0n3azAyYkbd6mI1eDNLrQPdQmrvuOO+5IN910k4j29HWcCTBu1Hf06NH0yEc+sizXCFmaEZ4tnFHDpOF9+vRP//QygIR0bCy8o9MJOYJ66Utfmr7ne74nPf3pT0827SebTtKjHvUoGfdznvMcbaJYFzFg/fK2zNDR1Dd8wzekb/zGb0w/9EM/JCMhL0AZ5OE///nPl07o277t29Kb3/xmrX9reeLQT/7kTxa9lOMa0AXCeLih/uVf/kX5z3zmM9NnfMZnpIc//OG6/mc84xnph3/4h7XO7t8whBB6qIf2UNf3fu/3JpsSpfdP/uRPdNRjyyj1y+/93u+Ves8kaAcOBd04hdgQETIGcTZ5VmCNmQvWCbuuMWuYAYhsN15kCX/6p3+65LHG4Qjp1a9+tdafHE/Ua1LilCPO8QVrmYc+9KHNi1/84sYGWGWtExV+8IMfbJ70pCcVebvDm//7v/9TfoA6SX/4wx/WMVbIovfXfu3XOmsuQuTN6zXnnXee5JC/4oorGvOARRdE+sd+7Mea888/v7Q/dENxLHPBBRc0tsNV26MeEHps+aNyEGs825A0tvFQ/aEDoi6umTbsBuqB5lljoo/0//7v/zZ2Q5X2n3vuuc273/1u5dd1IrsUa0zTVwgwfb3tbW/TXQesU+VBAnbRyS4s/eAP/mAyY5F3oKxdaDID1HSC12GXCN8GT1P8L/7iL6Y/+qM/Kh4DPcg/9rGPVV3IUvd///d/l7oBcYg2MR0G0MsSA48ZbQ89b33rWzW1Eof3hV/4hel+97tfkaPNL3zhC+XtmbLh8+mJ3STyMk984hPTOeecI1nyf/M3f1Me0AZYvNAb9dVEmzi8ZhrnWoOP7Oki6gOhl6M99gA/+7M/q/FAhmthpuI6wJmoey5Yg+YCd0ftMa2BCmuPGR6Mu4r4H//xHzfm/ovX4G56+9vfXu48M5Dmoosu6ngDW3Q3ZnTa1V911VXNf/7nfzZ/+qd/2phBSM6MVCHe541vfKP00DbqvfLKK1UXbYNsOlQ7Asixs7QpU3Uhgzz02Z/92fKOyATQ+eM//uOSjWvAiyFDvXicX/7lX5Z3Jp+2ff7nf75mANvo6WD62muvbV7xildoRoi6HvjABza2JCn9EHWaIatPIbzv0572NOmkbb/+67/emEHLs//Wb/2WroOyuwHdUN9j4gW/+7u/u7Glk/qJ+Nd8zdc0F198cbkWvPbv//7vN7b2LXqirYD4ojzmKRtmUG2YdBSGQKf9zd/8TWM7cg1mDIitnRrbyEiOi/2sz/qsMuiEthvUYKIDok4GHwOxXWHzxV/8xZILIm3epHSYeZhSF0YXxhag3mPHjjVf9VVfpfIXXnihDABZpsv3ve990hMwDyLjCAO2zVxjHrLcfO985zs1EOQxOOYZG/PSykcPMiGLcdIX0R82S5SpNOqsDZM6MQ6O3K6//nrpCH30DfG6rbMQ+vuGyfWjnzD6izh53GjPfe5zNRbR/6GnrpP4vpvK7ULKVMyxEPTyl79cnxR83dd9nRbv7DKt8ZLlwQA2JHanqvy///u/67N3a4PS5P/Mz/yMpj3rIBGwgSxT9Qte8ALFKQPxUAIHw9RB+jGPeUwyY1ScOtkRs6kKeXjslM0AVebJT35yWVowXZt3VjzkKfuJT3xC5Uh/67d+q5YVtIHyfKjAiQGwwdO0yzEZ8n3wocOnfdqnqRyg3WyiIo3+PuiTP/uzP9NhODqDqP90QX3RbwHi6GYZZLNdMseRfuInfkLTO3lDbVwYrLK5YBexbSq3i1BIOog0xN0HcVfimf7hH/5Bd1/c9WwCQgd0+eWXlyljCJQx42kuvfTSUg/LhJe97GXljkb3b/zGb5R2sZn6q7/6q84d/6pXvUptQsZuouZHfuRHSnu/6Zu+qXgmZGlzbJLwhmymoh68ie3SlQfhefFseDPqA1Fn0Hd+53cWD8Xmg2VNnd/3mGboHX2ngtDd95i2Tm7MgTTPfvazm2c961mKs1yiz6ibNsYY0lb6ImaxAPF95TGt4YNeAZ7pVNwuTIfrbAD+7u/+TscddpHK4460XbTiIc+hLpueWUA352s2fZe6zdCTreEURw986mFzQpwNju0wS7sgPlqzgVb7ONb5oi/6IuVbJydb18pzhn48KxsP0jxlwxMzyJG2QSoeP+pmk2Br0vSjP/qjmh04IjLDVwihL2SZTTg6mgVmii/5ki85I95xCGZAyZZb6W//9m+TGV16zWteoyMzvLjd7NpIAtrLMw7MVlzvWYNVPBe4O8JjWseWu+opT3mKjjm421n4c9exiH7+85+vdaZNheWuDU/EOg+Z0AO99rWvLZ5tCFH+t3/7tyVP0yE8XnhiiDVsvS687LLLSh5eznb6ysPzcmzD5oT1JTy8w7/927+pHejkYzh0wDdjK96Lttxwww3aKEQ7Qo4QQl+0M+I1jw3Qm970ps46k/Vk6GOWYYMUedCpIMr2PaYtKzp1B3F9XKcZqdoQ18LsxGyETID4vltjWoMVcsf967/+a7IB1QHzP/3TP+lOtN2jDou5M4FdnMrYxeguxGsRQqB+6GMIyKGjPqoBZnDiA0L04KXxztRlN5O8HmCtZJs1yX3zN3+zDow5xDeDUD56uQ7y0Ys8qtFpN53aH14fWa4hQJkgULeReE3Bw+uGvj7wmLQv5EPvmULoBXXbaQ91M5MwflEvbaVvzhZO2TDjwug8HgyGMBoGER6DyEUhFxcH4uLraRsZDGY3IMfn7egI4pyt7mQ2J2xA0E8beMKaKQoZpiyMlSWBrSeLDow0bjRb9+ls8kMf+pDqQjUPv3IuCeLGQp7rDHADshGE/vIv/1JP6tj6Nr3yla8cJDaLnA3WbR8C7bsnQLvoR0LaQMjG8WzhlAyTRgbF4AZhdAxaGGYMOAh5BvRBD3qQ5Xk+xPqOQd8J5P/Xf/1XqQs9rPuiLkBoy4uy+6dOjITDY8qSZifODhlZyvIRaDxsYtOQbpJ//ud/1loYsNuHol7ADWDTceHhUVgnY/BXXHFF+pZv+Rbt4muCF4Q3sqm16BvCTnmLAH1DHwfZ0ifneFu45rOF0/aYIDqwDoP6oBwXyFEN/9khZFgO7HRH0lEYzX/8x38oTTk89OMf/3gZF3qjTXyebDvJ0gaOpjieiQeVeXIGDx91x2falKcNeEo2A5H/5V/+5TrGIo0MITcFdQN4eOY3vvGNyotyfXAN0UaAHG2P+H4A7YO40V796lerXaRxONzMZwunbJinCi6Si/3Kr/xKDXYMFEbDOSgdMgR22Dy8EPKEfJeoPrcEhBgNZ6lhCJxF4gExHqbxWIMGWH7gZSnLx4Z41ji7Qx5dgHTcBPBZd3KTRd0vetGL0vvf/37Fh4AcZWnHfgVtZHaxjY5u5gBLoy/7si/LqcVjbsOkQ+swOnkvoExM9XgojlbgkWbatB23DtmZQth8YFiEHK3w+TiHvshDdNTP//zP60tvlA89UQ8H2mE06LEdsIz7/PPP18Ex/AC68OCE3Bj/+I//WD5Lx/gh5KMMIdfxtV/7tXlJ4vXzDVK+QsJn8bS7T6xdX/WqV6Uf+IEfUPpsoj9WtJl+pU2EEDPSn//5n+tpqxe/+MWd6+VpKZxJjVpnyJ4xmPK5YB2p4yJba9GacuxRfyS5F6DPBl8Hu+bhysd1NuB6gojDaz7DJSRtHamDcTMefc5rRrnj8ZIZmI6vKIdOQtrMx5QcV9XliHNMxBEOMsgTUuYXfuEX1NYayMOjfj7H57iJMrSN0LypPl7lgPx3fud3mhe+8IU6euKIBp1PfepT1b5AtKU+LuKaecqHvLqte0WU56PZ+riIdtDe6J/gQXHt8BkTcyKNLbW29Td9EMdFYQ9n6rjoHjNMLpALvfrqqxvbGBSjjE4ZIvJt2tWDExjXToZJe83LlnLohThf7ZcjzjkfA1DXh8HZ+lT5IR9xiDq4uV7ykpc05jlVDxR1hp7+NXH2ux8MMyj6pib4GJxt1PSwTdyIdVsWaZhzT+VWsaZEzriYIq3hmvrgmZ5tU8U8QAefMHDEwjTNLtUGVHmhExnqps6nPe1pOs7hsSymZGTJ64Ny1mn6lIjjJIAe2l6fzdVAX3zOHcRinweV+9dWy6Dzec97nqZolie0ibqi/cjAQ46172WXXaYv8CEDQs4GvcgRQvCjf08VoQOgO/TX10Bbon/oZzaVl19+uTakHH2xjg8Z5PugDGWxB0Jwuu3e0y9xcFCNYbAeoYFUzsd6dDhqorP3iug8HohgfcYGggcoWHdiWJdcconWhawD46YY6qAAuiA+8uN5yjj2oRyGEQMUOrg22sAziPFRKWD9SL10+FCdlKkJ46K+d77zndrM8fEmu38eQMHIObfk2AnDqPVRP3HOW9l4AOrEILhhyDvVvqUfAGtJjuSiL4ZAn3Aey4lG3NBgVn/T7htuuCG9+93vLvVgCxzOY9xgqNw82NMvcQDEaShhv9K9NCKqpQzxIAYt6oq8WoZ40CyELHqQQycIAwThNQByUabmh3zoiHgNjBEehDyDG/X2ETL1QBPG9RKGx4n2wKvbtFeEHlDrGNJXy9bhrPqj3/p58OJGOtV2z22YK6xwNnFq88MKKywYK8NcYV9iZZgr7EusDHOFfYmVYa6wL7EyzBX2JVaGucK+xMowV9iXWBnmCvsSK8NcYV9iZZgr7EusDHOFfYiU/n++wksdCT33CwAAAABJRU5ErkJggg==;" vertex="1" parent="14">
          <mxGeometry x="872.14" y="19.999999999999996" width="71.33255220417632" height="81.6473317865429" as="geometry" />
        </mxCell>
        <mxCell id="818" value="Architecture: Backup and Archive &amp;gt; API Hosting" style="fillColor=#4DA1F5;strokeColor=none;shadow=1;gradientColor=none;fontSize=14;align=left;spacingLeft=50;fontColor=#ffffff;html=1;" parent="1" vertex="1">
          <mxGeometry x="280" y="90" width="650" height="40" as="geometry" />
        </mxCell>
        <mxCell id="4D6Yn64_4JIRmKL3iklQ-1015" style="edgeStyle=elbowEdgeStyle;rounded=0;elbow=vertical;html=1;labelBackgroundColor=none;startFill=1;startSize=4;endArrow=blockThin;endFill=1;endSize=4;jettySize=auto;orthogonalLoop=1;strokeColor=none;strokeWidth=2;fontSize=12;fontColor=#000000;align=left;dashed=0;" edge="1" parent="1">
          <mxGeometry relative="1" as="geometry">
            <mxPoint x="400" y="325" as="sourcePoint" />
            <mxPoint x="440" y="325" as="targetPoint" />
          </mxGeometry>
        </mxCell>
      </root>
    </mxGraphModel>
  </diagram>
</mxfile>
